<?xml version="1.0" encoding="UTF-8"?>
<!DOCTYPE svg PUBLIC "-//W3C//DTD SVG 1.1//EN" "http://www.w3.org/Graphics/SVG/1.1/DTD/svg11.dtd">
<svg xmlns="http://www.w3.org/2000/svg" version="1.1" width="182px" height="182px" style="shape-rendering:geometricPrecision; text-rendering:geometricPrecision; image-rendering:optimizeQuality; fill-rule:evenodd; clip-rule:evenodd" xmlns:xlink="http://www.w3.org/1999/xlink">
<g><path style="opacity:1" fill="#225851" d="M 168.5,103.5 C 167.008,98.5997 166.008,93.5997 165.5,88.5C 161.951,55.5735 144.617,33.4068 113.5,22C 71.8777,13.5614 42.0444,28.3947 24,66.5C 19.674,79.5555 18.5074,92.8889 20.5,106.5C 20.6495,107.552 20.4828,108.552 20,109.5C 18.908,106.956 18.2414,104.289 18,101.5C 17.6174,100.944 17.1174,100.611 16.5,100.5C 14.8829,57.6185 34.5496,29.7851 75.5,17C 112.107,10.9637 140.274,23.4637 160,54.5C 168.236,69.9195 171.07,86.2528 168.5,103.5 Z"/></g>
<g><path style="opacity:1" fill="#238d86" d="M 113.5,62.5 C 111.497,63.5316 109.497,63.1982 107.5,61.5C 108.639,59.6043 107.973,58.6043 105.5,58.5C 106.954,50.5394 104.954,43.7061 99.5,38C 92.3002,34.5068 86.1336,36.0068 81,42.5C 79.9056,49.12 78.9056,55.7866 78,62.5C 76.9513,64.3844 75.4513,65.7177 73.5,66.5C 72.9569,66.44 72.6236,66.1067 72.5,65.5C 73.7853,62.9795 74.4519,60.3128 74.5,57.5C 71.2908,42.2322 77.2908,33.2322 92.5,30.5C 101.197,31.707 107.031,36.3737 110,44.5C 110.333,49.5 110.667,54.5 111,59.5C 112.045,60.3734 112.878,61.3734 113.5,62.5 Z"/></g>
<g><path style="opacity:1" fill="#217269" d="M 105.5,58.5 C 107.973,58.6043 108.639,59.6043 107.5,61.5C 109.497,63.1982 111.497,63.5316 113.5,62.5C 123.243,60.7808 131.743,63.1141 139,69.5C 145.613,81.9834 142.78,91.4834 130.5,98C 125.896,99.0607 121.229,99.7273 116.5,100C 115.219,101.409 114.219,102.909 113.5,104.5C 113.07,101.138 114.07,98.3046 116.5,96C 115.906,95.5357 115.239,95.369 114.5,95.5C 119.357,94.6716 124.357,93.8383 129.5,93C 140.167,85 140.167,77 129.5,69C 122.804,68.0443 116.138,67.0443 109.5,66C 107.13,64.0589 105.797,61.5589 105.5,58.5 Z"/></g>
<g><path style="opacity:1" fill="#22746a" d="M 74.5,57.5 C 74.4519,60.3128 73.7853,62.9795 72.5,65.5C 72.6236,66.1067 72.9569,66.44 73.5,66.5C 66.8419,67.0362 60.1752,68.2029 53.5,70C 46.9626,75.4753 45.796,81.9753 50,89.5C 51.4095,90.7875 52.9095,91.9542 54.5,93C 60.4187,94.1956 66.4187,94.8622 72.5,95C 75.4086,96.4055 77.4086,98.5722 78.5,101.5C 75.6314,98.488 74.2981,99.1547 74.5,103.5C 73.6836,101.856 72.3502,100.69 70.5,100C 63.1367,100.313 56.1367,98.9796 49.5,96C 42.4043,89.5111 40.571,81.6778 44,72.5C 46.3151,68.1832 49.8151,65.3498 54.5,64C 60.1169,62.9484 65.7835,62.2818 71.5,62C 72.7811,60.5913 73.7811,59.0913 74.5,57.5 Z"/></g>
<g><path style="opacity:1" fill="#288881" d="M 114.5,95.5 C 115.239,95.369 115.906,95.5357 116.5,96C 114.07,98.3046 113.07,101.138 113.5,104.5C 113.993,106.806 114.326,109.139 114.5,111.5C 119.857,112.365 124.023,115.032 127,119.5C 131.714,128.288 132.381,137.288 129,146.5C 125.787,150.524 121.62,152.524 116.5,152.5C 116.5,151.167 116.5,149.833 116.5,148.5C 127.529,147.942 131.362,142.276 128,131.5C 125.307,127.293 122.473,123.127 119.5,119C 113.41,115.304 107.743,115.804 102.5,120.5C 100.914,123.341 99.0803,126.007 97,128.5C 92.8877,135.774 93.721,142.274 99.5,148C 101.833,148.333 104.167,148.667 106.5,149C 107.337,150.011 107.67,151.178 107.5,152.5C 92.6761,150.131 88.3428,141.964 94.5,128C 94.8513,119.128 99.5179,113.628 108.5,111.5C 108.344,107.418 108.844,103.418 110,99.5C 111.371,97.9586 112.871,96.6253 114.5,95.5 Z"/></g>
<g><path style="opacity:1" fill="#248d85" d="M 78.5,101.5 C 79.1189,106.452 79.7856,111.452 80.5,116.5C 87.9855,121.937 88.3188,127.77 81.5,134C 71.6806,136.517 66.8472,132.684 67,122.5C 68,118.833 70.3333,116.5 74,115.5C 74.4988,111.514 74.6655,107.514 74.5,103.5C 74.2981,99.1547 75.6314,98.488 78.5,101.5 Z"/></g>
<g><path style="opacity:1" fill="#225852" d="M 165.5,88.5 C 166.008,93.5997 167.008,98.5997 168.5,103.5C 162.249,136.585 142.916,157.752 110.5,167C 73.4318,173.656 44.9318,161.156 25,129.5C 20.2372,120.38 17.4039,110.714 16.5,100.5C 17.1174,100.611 17.6174,100.944 18,101.5C 18.2414,104.289 18.908,106.956 20,109.5C 20.4828,108.552 20.6495,107.552 20.5,106.5C 28.5393,136.373 47.5393,155.54 77.5,164C 116.564,169.057 144.397,153.89 161,118.5C 164.506,108.803 166.006,98.8025 165.5,88.5 Z"/></g>
<g><path style="opacity:0.818" fill="#2f5755" d="M 70.5,123.5 C 70.8417,122.662 71.5084,122.328 72.5,122.5C 72.5,124.5 72.5,126.5 72.5,128.5C 71.5084,128.672 70.8417,128.338 70.5,127.5C 71.8333,126.167 71.8333,124.833 70.5,123.5 Z"/></g>
</svg>
